<?xml version="1.0" standalone="no"?>
<!DOCTYPE svg PUBLIC "-//W3C//DTD SVG 1.1//EN" "http://www.w3.org/Graphics/SVG/1.1/DTD/svg11.dtd">
<svg xmlns="http://www.w3.org/2000/svg" width="112.74600219726562" height="28.667999267578125" viewBox="0 0 112.746 28.668">
  <path d="M0 28.668h25.473l10.85-25.477H0Z" fill="#2e2b61"/>
  <path d="M43.766 3.195 27.724 15.891l16.077 12.777h7.148V3.195Z" fill="#ca3363"/>
  <path d="M111.805 25.863h.941v-5.129h-.941zm-.793 0h-.926V22.25h.926zm-1.082-4.625c0-.347.28-.613.62-.613.333 0 .606.266.606.613 0 .325-.273.61-.605.61a.626.626 0 0 1-.621-.61m-2.32 4.66a1.8 1.8 0 0 1-1.829-1.835c0-1.075.852-1.848 1.864-1.848.824 0 1.523.512 1.726 1.36h-.98c-.153-.298-.422-.485-.77-.485-.504 0-.91.402-.91.969 0 .562.406.968.91.968.328 0 .578-.168.738-.433h.993c-.235.86-.977 1.304-1.743 1.304m-2.453-1.992v1.957h-.96v-1.742c0-.121.09-1.031-.606-1.07-.34-.02-.945.168-.945 1.113v1.7h-.957V22.25h.738l.12.441h.126c.152-.18.492-.476 1.098-.476.933 0 1.386.695 1.386 1.691m-4.32-1.656v3.613h-.723l-.129-.402h-.097c-.14.18-.461.441-1.055.441-.96 0-1.45-.68-1.45-1.695V22.25h.981v1.742c0 .45.04 1.07.66 1.07.317 0 .836-.167.836-1.113V22.25Zm-5.024 1.809c0-.567-.332-1.008-.882-1.008-.547 0-.918.441-.918 1.008 0 .562.37 1.003.918 1.003.55 0 .882-.44.882-1.003m-2.746.008c0-1.157.895-1.852 1.864-1.852.976 0 1.828.7 1.828 1.836 0 1.148-.88 1.852-1.856 1.852-.984 0-1.836-.704-1.836-1.836m-.398.28c-.29.97-1.098 1.555-2.074 1.555-1.324 0-2.285-1.086-2.285-2.566 0-1.48.957-2.566 2.277-2.566.969 0 1.793.585 2.082 1.554h-1.09c-.187-.406-.527-.601-.976-.601-.825 0-1.293.672-1.293 1.613 0 .937.476 1.61 1.308 1.61.446 0 .774-.196.961-.598zm-6.664-.44v1.956h-.969v-1.742c0-.351.059-1.07-.594-1.07-.316 0-.93.168-.93 1.113v1.7h-.968v-5.13h.918v1.891h.121c.176-.18.508-.41 1.043-.41.93 0 1.379.695 1.379 1.691m-5.805 1.992a1.803 1.803 0 0 1-1.828-1.835c0-1.075.852-1.848 1.867-1.848.82 0 1.524.512 1.727 1.36h-.985c-.152-.298-.418-.485-.765-.485-.504 0-.91.402-.91.969 0 .562.406.968.91.968.324 0 .578-.168.738-.433h.988c-.23.86-.976 1.304-1.742 1.304m-2.043-3.683v.926a1.67 1.67 0 0 0-.32-.032c-.504 0-1.031.262-1.031.926v1.828h-.961V22.25h.734l.133.398h.113c.16-.16.516-.433 1.106-.433zm-4.164 2.133v-.075c-.656.075-1.308.153-1.308.528 0 .55 1.25.508 1.308-.453m1.317.824v.691h-.22c-.417 0-.714-.152-.839-.46-.215.296-.578.5-1.14.5-.817 0-1.337-.423-1.337-1.07 0-1.13 1.54-1.231 2.235-1.267-.016-.418-.246-.57-.617-.57-.512 0-.547.309-.547.309h-.903c.063-.64.59-1.09 1.473-1.09.86 0 1.465.426 1.465 1.473v.96c0 .422.152.524.43.524m-6.594-1.57h1.625c-.106-.426-.403-.598-.766-.598a.891.891 0 0 0-.86.598m2.583.73h-2.64c.109.55.558.75.948.75.493 0 .7-.3.7-.3h.91c-.274.722-.93 1.116-1.64 1.116-.973 0-1.829-.742-1.829-1.87 0-1.122.848-1.813 1.8-1.813.927 0 1.864.644 1.75 2.117m-5.398-1.352c-.304 0-.437.153-.437.305 0 .246.328.317.543.36.644.136 1.293.332 1.293 1.097 0 .746-.613 1.16-1.356 1.16-.832 0-1.476-.507-1.52-1.273h.891c.02.215.165.496.606.496.367 0 .457-.195.457-.344 0-.27-.254-.347-.5-.406-.426-.094-1.344-.266-1.344-1.09 0-.71.68-1.07 1.38-1.07.808 0 1.343.492 1.386 1.098h-.887c-.031-.122-.144-.333-.512-.333m-4.554.622h1.625c-.106-.426-.407-.598-.766-.598a.891.891 0 0 0-.86.598m2.579.73h-2.637c.11.55.555.75.95.75.488 0 .699-.3.699-.3h.91c-.274.722-.934 1.116-1.64 1.116-.977 0-1.829-.742-1.829-1.87 0-1.122.844-1.813 1.8-1.813.923 0 1.864.644 1.747 2.117m-6.438-1.223h.793c.414 0 .688-.316.688-.734 0-.422-.281-.668-.688-.668h-.793zm1.676 2.754-1.078-1.855h-.598v1.855h-.918v-5.058h1.786c.832 0 1.566.558 1.566 1.554 0 .696-.39 1.223-.91 1.473l1.222 2.031zm29.613-7.402h.938v-5.133h-.938zm-1.785-1.52v-.07c-.66.07-1.308.152-1.308.527 0 .551 1.25.504 1.308-.457m1.313.825v.695h-.215c-.422 0-.715-.152-.84-.465-.215.297-.578.5-1.14.5-.817 0-1.336-.418-1.336-1.07 0-1.125 1.539-1.227 2.23-1.266-.012-.418-.246-.57-.613-.57-.512 0-.551.312-.551.312h-.902c.066-.644.593-1.09 1.476-1.09.86 0 1.465.426 1.465 1.473v.961c0 .418.152.52.426.52m-4.219.695h-.926v-3.613h.926zm-1.086-4.625c0-.348.285-.613.621-.613s.61.265.61.613a.614.614 0 0 1-.61.605.625.625 0 0 1-.62-.605m-2.321 4.66a1.805 1.805 0 0 1-1.828-1.836c0-1.078.851-1.851 1.867-1.851.82 0 1.523.515 1.726 1.359h-.984c-.152-.293-.418-.484-.766-.484-.504 0-.91.406-.91.968 0 .567.406.97.91.97a.834.834 0 0 0 .739-.434h.988c-.23.859-.977 1.308-1.742 1.308m-3.274-1.844c0-.562-.332-1.004-.882-1.004-.547 0-.918.442-.918 1.004 0 .567.37 1.008.918 1.008.55 0 .882-.441.882-1.008m-2.746.008c0-1.156.899-1.847 1.864-1.847.976 0 1.832.699 1.832 1.836 0 1.148-.883 1.847-1.86 1.847-.98 0-1.836-.699-1.836-1.836m-2.148 1.836c-1.106 0-1.871-.723-1.871-1.668h.941c.086.629.606.774.926.774.246 0 .734-.09.734-.559 0-.426-.41-.598-.824-.758-.676-.27-1.637-.594-1.637-1.555 0-.851.743-1.37 1.645-1.37 1.05 0 1.637.699 1.637 1.343h-.926c-.051-.281-.363-.465-.723-.465-.347 0-.637.176-.637.492 0 .313.282.434.774.657.527.242 1.652.523 1.652 1.664 0 .945-.773 1.445-1.691 1.445m-5.309-1.844c0-.597-.328-.953-.797-.953-.441 0-.882.317-.882.953 0 .637.44.957.882.957.47 0 .797-.355.797-.957m.903-3.324v5.133h-.711l-.098-.348h-.11c-.226.246-.527.383-.917.383-.918 0-1.684-.75-1.684-1.844 0-1.09.766-1.84 1.684-1.84.375 0 .699.13.933.387v-1.87zM63.96 16.5v1.96H63V16.72c0-.125.086-1.035-.61-1.07-.34-.02-.945.167-.945 1.113v1.699h-.953v-3.613h.735l.125.441h.12c.153-.184.493-.476 1.098-.476.934 0 1.39.69 1.39 1.687m-5.32.441v-.07c-.66.07-1.308.152-1.308.527 0 .551 1.25.504 1.309-.457m1.312.825v.695h-.215c-.418 0-.715-.152-.84-.465-.214.297-.578.5-1.14.5-.817 0-1.336-.418-1.336-1.07 0-1.125 1.539-1.227 2.23-1.266-.011-.418-.242-.57-.613-.57-.512 0-.547.312-.547.312h-.902c.062-.644.59-1.09 1.472-1.09.86 0 1.465.426 1.465 1.473v.961c0 .418.153.52.426.52m26.781-6.672a1.805 1.805 0 0 1-1.828-1.836c0-1.078.852-1.852 1.864-1.852.824 0 1.527.512 1.726 1.36h-.98c-.153-.297-.422-.485-.766-.485-.508 0-.91.403-.91.969 0 .563.402.969.91.969a.83.83 0 0 0 .734-.434h.993c-.23.86-.977 1.309-1.743 1.309m-2.5-.04h-.925V7.442h.925zM83.148 6.43c0-.348.282-.614.622-.614.335 0 .609.266.609.614 0 .328-.274.61-.61.61a.623.623 0 0 1-.62-.61m-.602 2.668v1.957h-.961V9.316c0-.5.055-1.129-.613-1.07-.172.012-.649.094-.649 1.113v1.696h-.957V9.316c0-.5.051-1.129-.613-1.07-.172.012-.649.094-.649 1.113v1.696h-.953V7.44h.735l.11.391h.116c.137-.18.426-.418.871-.426.407-.008.754.18.993.5h.109c.18-.226.512-.5 1.098-.508.937-.008 1.363.696 1.363 1.7m-6.957.152c0-.566-.332-1.004-.883-1.004-.55 0-.918.438-.918 1.004 0 .563.367 1.004.918 1.004.55 0 .883-.442.883-1.004m-2.746.008c0-1.156.894-1.852 1.863-1.852.977 0 1.828.704 1.828 1.836 0 1.149-.883 1.852-1.855 1.852-.985 0-1.836-.703-1.836-1.836m-.621-.16v1.957h-.961V9.316c0-.125.086-1.035-.61-1.07-.34-.023-.945.164-.945 1.113v1.696h-.953V7.44h.734l.125.442h.121c.153-.18.493-.477 1.098-.477.934 0 1.39.696 1.39 1.692m-5.03.152c0-.566-.337-1.004-.883-1.004-.551 0-.918.438-.918 1.004 0 .563.367 1.004.918 1.004.546 0 .882-.442.882-1.004m-2.746.008c0-1.156.895-1.852 1.864-1.852.976 0 1.828.704 1.828 1.836 0 1.149-.883 1.852-1.856 1.852-.984 0-1.836-.703-1.836-1.836m-2.242 1.836a1.805 1.805 0 0 1-1.828-1.836c0-1.078.852-1.852 1.863-1.852.825 0 1.528.512 1.727 1.36h-.98c-.153-.297-.422-.485-.766-.485-.508 0-.91.403-.91.969 0 .563.402.969.91.969.324 0 .578-.168.738-.434h.988c-.23.86-.976 1.309-1.742 1.309m-2.234-.942v.903h-3.403V5.996h3.332v.906h-2.386v1.141h2.168v.902h-2.168v1.207zm0 0" fill="#2e2b61"/>
  <path d="M19.7 15.93h-3.993v-4.262zm-3.481 7.93h-3.48v1.39l-2.454-3.21c1.867-.345 2.832-1.31 2.832-2.99 0-.413-.062-.784-.176-1.113h3.278zM5.773 17.937h2.72c1.116 0 1.57.433 1.57 1.113 0 .68-.454 1.125-1.57 1.125h-2.72Zm6.965-5.047V17.5c-.633-1.066-2.09-1.563-4.246-1.57 1.926-.196 3.707-1.235 4.246-3.04m9.934-6.894h-2.973l-3.992 4.254V5.996h-5.77v5.645c0 1.21-.894 1.91-2.082 1.91-1.187 0-2.082-.7-2.082-1.91V5.996H2.801v5.688c0 2.55 2.058 4.011 4.379 4.246H2.8v9.933h2.973v-3.68H7.07l2.746 3.68h12.856V23.86h-3.485v-5.922h3.485v-2.62l-4.258-4.36 4.258-4.348zm0 0" fill="#fff"/>
  <path d="m40.965 6.05 2.8-2.855L46.896 0H25.473v28.668H43.8L31.324 15.891l9.64-9.84" fill="#ff5959"/>
</svg>