<svg xmlns="http://www.w3.org/2000/svg" xmlns:xlink="http://www.w3.org/1999/xlink" zoomAndPan="magnify" preserveAspectRatio="xMidYMid meet" version="1.0" viewBox="34.82 210.92 1379.04 354.98"><defs><g/><clipPath id="133c43afe9"><path d="M 1255.519531 0.921875 L 1382.867188 0.921875 L 1382.867188 128.269531 L 1255.519531 128.269531 Z M 1255.519531 0.921875 " clip-rule="nonzero"/></clipPath><clipPath id="43eee2ad68"><path d="M 1319.191406 0.921875 C 1284.027344 0.921875 1255.519531 29.429688 1255.519531 64.59375 C 1255.519531 99.761719 1284.027344 128.269531 1319.191406 128.269531 C 1354.359375 128.269531 1382.867188 99.761719 1382.867188 64.59375 C 1382.867188 29.429688 1354.359375 0.921875 1319.191406 0.921875 Z M 1319.191406 0.921875 " clip-rule="nonzero"/></clipPath><clipPath id="0ed1b03a61"><path d="M 0.519531 0.921875 L 127.867188 0.921875 L 127.867188 128.269531 L 0.519531 128.269531 Z M 0.519531 0.921875 " clip-rule="nonzero"/></clipPath><clipPath id="df4995d730"><path d="M 64.191406 0.921875 C 29.027344 0.921875 0.519531 29.429688 0.519531 64.59375 C 0.519531 99.761719 29.027344 128.269531 64.191406 128.269531 C 99.359375 128.269531 127.867188 99.761719 127.867188 64.59375 C 127.867188 29.429688 99.359375 0.921875 64.191406 0.921875 Z M 64.191406 0.921875 " clip-rule="nonzero"/></clipPath><clipPath id="eddc310dd5"><rect x="0" width="128" y="0" height="129"/></clipPath><clipPath id="48fb310ad1"><path d="M 1278.105469 23.507812 L 1360.28125 23.507812 L 1360.28125 105.683594 L 1278.105469 105.683594 Z M 1278.105469 23.507812 " clip-rule="nonzero"/></clipPath><clipPath id="b88a0ac6c8"><path d="M 1319.191406 23.507812 C 1296.5 23.507812 1278.105469 41.902344 1278.105469 64.59375 C 1278.105469 87.289062 1296.5 105.683594 1319.191406 105.683594 C 1341.882812 105.683594 1360.28125 87.289062 1360.28125 64.59375 C 1360.28125 41.902344 1341.882812 23.507812 1319.191406 23.507812 Z M 1319.191406 23.507812 " clip-rule="nonzero"/></clipPath><clipPath id="b55b40cd6a"><path d="M 0.105469 0.507812 L 82.28125 0.507812 L 82.28125 82.683594 L 0.105469 82.683594 Z M 0.105469 0.507812 " clip-rule="nonzero"/></clipPath><clipPath id="c6e4573e27"><path d="M 41.191406 0.507812 C 18.5 0.507812 0.105469 18.902344 0.105469 41.59375 C 0.105469 64.289062 18.5 82.683594 41.191406 82.683594 C 63.882812 82.683594 82.28125 64.289062 82.28125 41.59375 C 82.28125 18.902344 63.882812 0.507812 41.191406 0.507812 Z M 41.191406 0.507812 " clip-rule="nonzero"/></clipPath><clipPath id="77b35f05cc"><rect x="0" width="83" y="0" height="83"/></clipPath><clipPath id="535afbb8f5"><rect x="0" width="1384" y="0" height="390"/></clipPath></defs><g transform="matrix(1, 0, 0, 1, 31, 210)"><g clip-path="url(#535afbb8f5)"><g clip-path="url(#133c43afe9)"><g clip-path="url(#43eee2ad68)"><g transform="matrix(1, 0, 0, 1, 1255, 0.000000000000028422)"><g clip-path="url(#eddc310dd5)"><g clip-path="url(#0ed1b03a61)"><g clip-path="url(#df4995d730)"><path fill="#217c44" d="M 0.519531 0.921875 L 127.867188 0.921875 L 127.867188 128.269531 L 0.519531 128.269531 Z M 0.519531 0.921875 " fill-opacity="1" fill-rule="nonzero"/></g></g></g></g></g></g><g fill="#217c44" fill-opacity="1"><g transform="translate(0.293684, 212.50897)"><g><path d="M 34.34375 0 L 34.34375 -78.109375 L 3.53125 -78.109375 L 3.53125 -103.15625 L 93.875 -103.15625 L 93.875 -78.109375 L 62.921875 -78.109375 L 62.921875 0 Z M 34.34375 0 "/></g></g></g><g fill="#217c44" fill-opacity="1"><g transform="translate(107.802556, 212.50897)"><g><path d="M 9.140625 0 L 9.140625 -103.15625 L 37.734375 -103.15625 L 37.734375 -64.546875 L 74.421875 -64.546875 L 74.421875 -103.15625 L 103.015625 -103.15625 L 103.015625 0 L 74.421875 0 L 74.421875 -39.203125 L 37.734375 -39.203125 L 37.734375 0 Z M 9.140625 0 "/></g></g></g><g fill="#217c44" fill-opacity="1"><g transform="translate(230.196007, 212.50897)"><g><path d="M 9.140625 0 L 9.140625 -103.15625 L 92.109375 -103.15625 L 92.109375 -79 L 37.4375 -79 L 37.4375 -63.21875 L 86.953125 -63.21875 L 86.953125 -40.671875 L 37.4375 -40.671875 L 37.4375 -24.3125 L 92.84375 -24.3125 L 92.84375 0 Z M 9.140625 0 "/></g></g></g><g fill="#217c44" fill-opacity="1"><g transform="translate(338.883845, 212.50897)"><g/></g></g><g fill="#217c44" fill-opacity="1"><g transform="translate(389.949215, 212.50897)"><g><path d="M 61.75 2.0625 C 53.789062 2.0625 46.375 0.738281 39.5 -1.90625 C 32.625 -4.5625 26.703125 -8.222656 21.734375 -12.890625 C 16.773438 -17.554688 12.867188 -23.179688 10.015625 -29.765625 C 7.171875 -36.347656 5.75 -43.519531 5.75 -51.28125 L 5.75 -51.578125 C 5.75 -59.046875 7.144531 -66.070312 9.9375 -72.65625 C 12.738281 -79.238281 16.597656 -84.910156 21.515625 -89.671875 C 26.429688 -94.441406 32.273438 -98.222656 39.046875 -101.015625 C 45.828125 -103.816406 53.195312 -105.21875 61.15625 -105.21875 C 70.195312 -105.21875 78.082031 -103.914062 84.8125 -101.3125 C 91.539062 -98.71875 97.609375 -95.0625 103.015625 -90.34375 L 86.21875 -70 C 82.582031 -73.050781 78.796875 -75.4375 74.859375 -77.15625 C 70.929688 -78.875 66.414062 -79.734375 61.3125 -79.734375 C 57.570312 -79.734375 54.101562 -78.992188 50.90625 -77.515625 C 47.71875 -76.046875 44.941406 -74.054688 42.578125 -71.546875 C 40.222656 -69.046875 38.359375 -66.070312 36.984375 -62.625 C 35.609375 -59.1875 34.921875 -55.503906 34.921875 -51.578125 L 34.921875 -51.28125 C 34.921875 -42.9375 37.550781 -36.0625 42.8125 -30.65625 C 48.070312 -25.25 54.773438 -22.546875 62.921875 -22.546875 C 66.460938 -22.546875 69.582031 -22.914062 72.28125 -23.65625 C 74.988281 -24.394531 77.375 -25.453125 79.4375 -26.828125 L 79.4375 -39.34375 L 59.25 -39.34375 L 59.25 -60.28125 L 106.546875 -60.28125 L 106.546875 -14 C 101.148438 -9.476562 94.691406 -5.671875 87.171875 -2.578125 C 79.648438 0.515625 71.175781 2.0625 61.75 2.0625 Z M 61.75 2.0625 "/></g></g></g><g fill="#217c44" fill-opacity="1"><g transform="translate(513.521633, 212.50897)"><g><path d="M 9.140625 0 L 9.140625 -103.15625 L 57.921875 -103.15625 C 65.773438 -103.15625 72.476562 -102.171875 78.03125 -100.203125 C 83.582031 -98.242188 88.078125 -95.546875 91.515625 -92.109375 C 94.566406 -89.066406 96.851562 -85.554688 98.375 -81.578125 C 99.894531 -77.597656 100.65625 -73.101562 100.65625 -68.09375 L 100.65625 -67.796875 C 100.65625 -59.835938 98.710938 -53.226562 94.828125 -47.96875 C 90.953125 -42.71875 85.820312 -38.710938 79.4375 -35.953125 L 104.046875 0 L 71.1875 0 L 50.40625 -31.25 L 37.734375 -31.25 L 37.734375 0 Z M 37.734375 -53.640625 L 56.734375 -53.640625 C 61.546875 -53.640625 65.300781 -54.742188 68 -56.953125 C 70.707031 -59.171875 72.0625 -62.144531 72.0625 -65.875 L 72.0625 -66.171875 C 72.0625 -70.296875 70.660156 -73.390625 67.859375 -75.453125 C 65.066406 -77.515625 61.3125 -78.546875 56.59375 -78.546875 L 37.734375 -78.546875 Z M 37.734375 -53.640625 "/></g></g></g><g fill="#217c44" fill-opacity="1"><g transform="translate(629.725475, 212.50897)"><g><path d="M 9.140625 0 L 9.140625 -103.15625 L 92.109375 -103.15625 L 92.109375 -79 L 37.4375 -79 L 37.4375 -63.21875 L 86.953125 -63.21875 L 86.953125 -40.671875 L 37.4375 -40.671875 L 37.4375 -24.3125 L 92.84375 -24.3125 L 92.84375 0 Z M 9.140625 0 "/></g></g></g><g fill="#217c44" fill-opacity="1"><g transform="translate(738.413274, 212.50897)"><g><path d="M 9.140625 0 L 9.140625 -103.15625 L 35.8125 -103.15625 L 78.25 -48.640625 L 78.25 -103.15625 L 106.546875 -103.15625 L 106.546875 0 L 81.640625 0 L 37.4375 -56.59375 L 37.4375 0 Z M 9.140625 0 "/></g></g></g><g fill="#217c44" fill-opacity="1"><g transform="translate(864.343624, 212.50897)"><g><path d="M 9.140625 0 L 9.140625 -103.15625 L 91.671875 -103.15625 L 91.671875 -78.109375 L 37.734375 -78.109375 L 37.734375 -60.578125 L 86.515625 -60.578125 L 86.515625 -36.84375 L 37.734375 -36.84375 L 37.734375 0 Z M 9.140625 0 "/></g></g></g><g fill="#217c44" fill-opacity="1"><g transform="translate(970.231483, 212.50897)"><g><path d="M 9.140625 0 L 9.140625 -103.15625 L 92.109375 -103.15625 L 92.109375 -79 L 37.4375 -79 L 37.4375 -63.21875 L 86.953125 -63.21875 L 86.953125 -40.671875 L 37.4375 -40.671875 L 37.4375 -24.3125 L 92.84375 -24.3125 L 92.84375 0 Z M 9.140625 0 "/></g></g></g><g fill="#217c44" fill-opacity="1"><g transform="translate(1078.919282, 212.50897)"><g><path d="M 9.140625 0 L 9.140625 -103.15625 L 37.734375 -103.15625 L 37.734375 -25.046875 L 87.6875 -25.046875 L 87.6875 0 Z M 9.140625 0 "/></g></g></g><g fill="#217c44" fill-opacity="1"><g transform="translate(1180.091117, 212.50897)"><g><path d="M 9.140625 0 L 9.140625 -103.15625 L 37.734375 -103.15625 L 37.734375 -25.046875 L 87.6875 -25.046875 L 87.6875 0 Z M 9.140625 0 "/></g></g></g><g fill="#217c44" fill-opacity="1"><g transform="translate(70.295881, 353.838326)"><g><path d="M 9.140625 0 L 9.140625 -103.15625 L 91.671875 -103.15625 L 91.671875 -78.109375 L 37.734375 -78.109375 L 37.734375 -60.578125 L 86.515625 -60.578125 L 86.515625 -36.84375 L 37.734375 -36.84375 L 37.734375 0 Z M 9.140625 0 "/></g></g></g><g fill="#217c44" fill-opacity="1"><g transform="translate(176.183662, 353.838326)"><g><path d="M 61.15625 2.0625 C 53.195312 2.0625 45.828125 0.660156 39.046875 -2.140625 C 32.273438 -4.941406 26.429688 -8.722656 21.515625 -13.484375 C 16.597656 -18.242188 12.738281 -23.890625 9.9375 -30.421875 C 7.144531 -36.960938 5.75 -43.914062 5.75 -51.28125 L 5.75 -51.578125 C 5.75 -58.953125 7.171875 -65.90625 10.015625 -72.4375 C 12.867188 -78.96875 16.75 -84.664062 21.65625 -89.53125 C 26.570312 -94.394531 32.441406 -98.222656 39.265625 -101.015625 C 46.097656 -103.816406 53.492188 -105.21875 61.453125 -105.21875 C 69.410156 -105.21875 76.78125 -103.816406 83.5625 -101.015625 C 90.34375 -98.222656 96.1875 -94.441406 101.09375 -89.671875 C 106.007812 -84.910156 109.867188 -79.257812 112.671875 -72.71875 C 115.472656 -66.1875 116.875 -59.238281 116.875 -51.875 L 116.875 -51.578125 C 116.875 -44.210938 115.445312 -37.257812 112.59375 -30.71875 C 109.75 -24.1875 105.867188 -18.488281 100.953125 -13.625 C 96.035156 -8.769531 90.160156 -4.941406 83.328125 -2.140625 C 76.503906 0.660156 69.113281 2.0625 61.15625 2.0625 Z M 61.453125 -23.734375 C 65.378906 -23.734375 68.941406 -24.46875 72.140625 -25.9375 C 75.335938 -27.414062 78.0625 -29.40625 80.3125 -31.90625 C 82.570312 -34.414062 84.34375 -37.335938 85.625 -40.671875 C 86.90625 -44.015625 87.546875 -47.550781 87.546875 -51.28125 L 87.546875 -51.578125 C 87.546875 -55.316406 86.90625 -58.878906 85.625 -62.265625 C 84.34375 -65.648438 82.546875 -68.59375 80.234375 -71.09375 C 77.929688 -73.601562 75.160156 -75.617188 71.921875 -77.140625 C 68.679688 -78.671875 65.09375 -79.4375 61.15625 -79.4375 C 57.226562 -79.4375 53.640625 -78.695312 50.390625 -77.21875 C 47.148438 -75.75 44.398438 -73.757812 42.140625 -71.25 C 39.890625 -68.75 38.125 -65.828125 36.84375 -62.484375 C 35.5625 -59.140625 34.921875 -55.601562 34.921875 -51.875 L 34.921875 -51.578125 C 34.921875 -47.847656 35.5625 -44.285156 36.84375 -40.890625 C 38.125 -37.503906 39.914062 -34.554688 42.21875 -32.046875 C 44.53125 -29.546875 47.332031 -27.535156 50.625 -26.015625 C 53.914062 -24.492188 57.523438 -23.734375 61.453125 -23.734375 Z M 61.453125 -23.734375 "/></g></g></g><g fill="#217c44" fill-opacity="1"><g transform="translate(308.893155, 353.838326)"><g><path d="M 55.5625 1.921875 C 41.019531 1.921875 29.445312 -1.929688 20.84375 -9.640625 C 12.25 -17.359375 7.953125 -29.226562 7.953125 -45.25 L 7.953125 -103.15625 L 36.84375 -103.15625 L 36.84375 -45.828125 C 36.84375 -38.460938 38.585938 -32.960938 42.078125 -29.328125 C 45.566406 -25.691406 50.160156 -23.875 55.859375 -23.875 C 61.648438 -23.875 66.289062 -25.617188 69.78125 -29.109375 C 73.269531 -32.597656 75.015625 -37.925781 75.015625 -45.09375 L 75.015625 -103.15625 L 103.90625 -103.15625 L 103.90625 -45.984375 C 103.90625 -37.722656 102.75 -30.570312 100.4375 -24.53125 C 98.125 -18.488281 94.878906 -13.503906 90.703125 -9.578125 C 86.535156 -5.648438 81.453125 -2.75 75.453125 -0.875 C 69.460938 0.988281 62.832031 1.921875 55.5625 1.921875 Z M 55.5625 1.921875 "/></g></g></g><g fill="#217c44" fill-opacity="1"><g transform="translate(430.844462, 353.838326)"><g><path d="M 9.140625 0 L 9.140625 -103.15625 L 35.8125 -103.15625 L 78.25 -48.640625 L 78.25 -103.15625 L 106.546875 -103.15625 L 106.546875 0 L 81.640625 0 L 37.4375 -56.59375 L 37.4375 0 Z M 9.140625 0 "/></g></g></g><g fill="#217c44" fill-opacity="1"><g transform="translate(556.774852, 353.838326)"><g><path d="M 9.140625 0 L 9.140625 -103.15625 L 49.078125 -103.15625 C 58.210938 -103.15625 66.390625 -101.878906 73.609375 -99.328125 C 80.835938 -96.773438 86.929688 -93.265625 91.890625 -88.796875 C 96.847656 -84.328125 100.628906 -78.945312 103.234375 -72.65625 C 105.835938 -66.363281 107.140625 -59.535156 107.140625 -52.171875 L 107.140625 -51.875 C 107.140625 -44.507812 105.8125 -37.632812 103.15625 -31.25 C 100.507812 -24.863281 96.679688 -19.359375 91.671875 -14.734375 C 86.660156 -10.117188 80.519531 -6.507812 73.25 -3.90625 C 65.976562 -1.300781 57.722656 0 48.484375 0 Z M 49.375 -77.96875 L 37.734375 -77.96875 L 37.734375 -25.34375 L 49.375 -25.34375 C 57.914062 -25.34375 64.816406 -27.625 70.078125 -32.1875 C 75.335938 -36.757812 77.96875 -43.175781 77.96875 -51.4375 L 77.96875 -51.734375 C 77.96875 -59.984375 75.335938 -66.414062 70.078125 -71.03125 C 64.816406 -75.65625 57.914062 -77.96875 49.375 -77.96875 Z M 49.375 -77.96875 "/></g></g></g><g fill="#217c44" fill-opacity="1"><g transform="translate(672.536138, 353.838326)"><g><path d="M 1.03125 0 L 44.796875 -103.90625 L 72.359375 -103.90625 L 116.28125 0 L 85.625 0 L 78.25 -18.5625 L 38.3125 -18.5625 L 30.953125 0 Z M 46.71875 -40.828125 L 69.859375 -40.828125 L 58.359375 -70 Z M 46.71875 -40.828125 "/></g></g></g><g fill="#217c44" fill-opacity="1"><g transform="translate(786.675921, 353.838326)"><g><path d="M 34.34375 0 L 34.34375 -78.109375 L 3.53125 -78.109375 L 3.53125 -103.15625 L 93.875 -103.15625 L 93.875 -78.109375 L 62.921875 -78.109375 L 62.921875 0 Z M 34.34375 0 "/></g></g></g><g fill="#217c44" fill-opacity="1"><g transform="translate(894.184773, 353.838326)"><g><path d="M 9.875 0 L 9.875 -103.15625 L 38.46875 -103.15625 L 38.46875 0 Z M 9.875 0 "/></g></g></g><g fill="#217c44" fill-opacity="1"><g transform="translate(952.618798, 353.838326)"><g><path d="M 61.15625 2.0625 C 53.195312 2.0625 45.828125 0.660156 39.046875 -2.140625 C 32.273438 -4.941406 26.429688 -8.722656 21.515625 -13.484375 C 16.597656 -18.242188 12.738281 -23.890625 9.9375 -30.421875 C 7.144531 -36.960938 5.75 -43.914062 5.75 -51.28125 L 5.75 -51.578125 C 5.75 -58.953125 7.171875 -65.90625 10.015625 -72.4375 C 12.867188 -78.96875 16.75 -84.664062 21.65625 -89.53125 C 26.570312 -94.394531 32.441406 -98.222656 39.265625 -101.015625 C 46.097656 -103.816406 53.492188 -105.21875 61.453125 -105.21875 C 69.410156 -105.21875 76.78125 -103.816406 83.5625 -101.015625 C 90.34375 -98.222656 96.1875 -94.441406 101.09375 -89.671875 C 106.007812 -84.910156 109.867188 -79.257812 112.671875 -72.71875 C 115.472656 -66.1875 116.875 -59.238281 116.875 -51.875 L 116.875 -51.578125 C 116.875 -44.210938 115.445312 -37.257812 112.59375 -30.71875 C 109.75 -24.1875 105.867188 -18.488281 100.953125 -13.625 C 96.035156 -8.769531 90.160156 -4.941406 83.328125 -2.140625 C 76.503906 0.660156 69.113281 2.0625 61.15625 2.0625 Z M 61.453125 -23.734375 C 65.378906 -23.734375 68.941406 -24.46875 72.140625 -25.9375 C 75.335938 -27.414062 78.0625 -29.40625 80.3125 -31.90625 C 82.570312 -34.414062 84.34375 -37.335938 85.625 -40.671875 C 86.90625 -44.015625 87.546875 -47.550781 87.546875 -51.28125 L 87.546875 -51.578125 C 87.546875 -55.316406 86.90625 -58.878906 85.625 -62.265625 C 84.34375 -65.648438 82.546875 -68.59375 80.234375 -71.09375 C 77.929688 -73.601562 75.160156 -75.617188 71.921875 -77.140625 C 68.679688 -78.671875 65.09375 -79.4375 61.15625 -79.4375 C 57.226562 -79.4375 53.640625 -78.695312 50.390625 -77.21875 C 47.148438 -75.75 44.398438 -73.757812 42.140625 -71.25 C 39.890625 -68.75 38.125 -65.828125 36.84375 -62.484375 C 35.5625 -59.140625 34.921875 -55.601562 34.921875 -51.875 L 34.921875 -51.578125 C 34.921875 -47.847656 35.5625 -44.285156 36.84375 -40.890625 C 38.125 -37.503906 39.914062 -34.554688 42.21875 -32.046875 C 44.53125 -29.546875 47.332031 -27.535156 50.625 -26.015625 C 53.914062 -24.492188 57.523438 -23.734375 61.453125 -23.734375 Z M 61.453125 -23.734375 "/></g></g></g><g fill="#217c44" fill-opacity="1"><g transform="translate(1085.328291, 353.838326)"><g><path d="M 9.140625 0 L 9.140625 -103.15625 L 35.8125 -103.15625 L 78.25 -48.640625 L 78.25 -103.15625 L 106.546875 -103.15625 L 106.546875 0 L 81.640625 0 L 37.4375 -56.59375 L 37.4375 0 Z M 9.140625 0 "/></g></g></g><g clip-path="url(#48fb310ad1)"><g clip-path="url(#b88a0ac6c8)"><g transform="matrix(1, 0, 0, 1, 1278, 23)"><g clip-path="url(#77b35f05cc)"><g clip-path="url(#b55b40cd6a)"><g clip-path="url(#c6e4573e27)"><path fill="#fefffe" d="M 0.105469 0.507812 L 82.28125 0.507812 L 82.28125 82.683594 L 0.105469 82.683594 Z M 0.105469 0.507812 " fill-opacity="1" fill-rule="nonzero"/></g></g></g></g></g></g></g></g></svg>