<?xml version="1.0" standalone="no"?>
<!DOCTYPE svg PUBLIC "-//W3C//DTD SVG 1.1//EN" "http://www.w3.org/Graphics/SVG/1.1/DTD/svg11.dtd">
<svg xmlns="http://www.w3.org/2000/svg" class="w-32 h-auto" aria-hidden="true" viewBox="0 0 194.61 68.72" width="194.61000061035156" height="68.72000122070312">
  <g id="ad75f47f-b285-447b-8a0e-6294ee061e61" data-name="Layer 2">
    <g id="b31b9cae-bdd4-4201-900f-cb7317194203" data-name="Header">
      <path d="M69,40.33l-1.23-5.14a5.62,5.62,0,0,0,.42-7,5.3,5.3,0,0,0-2.84-2.11,6.16,6.16,0,0,0,0-6.44A6.45,6.45,0,0,0,62,17.08a6.09,6.09,0,0,0-.13-7,5.68,5.68,0,0,0-4.63-2.36,6.76,6.76,0,0,0-1.87.34,6,6,0,0,0-1.19-4.11,5.55,5.55,0,0,0-4.33-2A6.43,6.43,0,0,0,46.31,3a7.17,7.17,0,0,0-5.68-3A5.26,5.26,0,0,0,37,1.25a5.94,5.94,0,0,0-1.79,2.68l-.32-.35a5.9,5.9,0,0,0-4.33-1.73,6.44,6.44,0,0,0-4.31,1.58A6.18,6.18,0,0,0,24,7.67a6.63,6.63,0,0,0-2.32-.42,6.9,6.9,0,0,0-4.48,1.68,6.11,6.11,0,0,0-1.5,7.67l.43.78-4.43,5.18-.06.08a8,8,0,0,0-1.73,4.83l-.76,8v.12a3,3,0,0,1-.55,1.76L0,48.3l.62,1.4c4.31,9.79,15,17,15.44,17.3l1.47,1,11.23-8.09,6.17-3.22,7,1.08a4.15,4.15,0,0,1,2,.88L56.41,68.72,57.87,68c.46-.23,11.53-5.72,18.92-15l1.28-1.6ZM66.11,29.65a3.14,3.14,0,0,1-.94,4.5,28.69,28.69,0,0,1-3.33,2,3,3,0,0,1-4-.78h0a2.89,2.89,0,0,1,.52-4.08,38.36,38.36,0,0,1,3.5-2.48C63.81,27.67,65.33,28.39,66.11,29.65ZM63.25,21a3.43,3.43,0,0,1-.69,4.56l-6.21,4.13a3.36,3.36,0,0,1-3.81-5.52l6.11-4.36A3.24,3.24,0,0,1,63.25,21Zm-8.6-9.86c1.74-1.22,3.86-1.3,5.15.44a3.51,3.51,0,0,1-.54,4.83c-2.08,1.7-8.73,6.19-8.73,6.19A3.49,3.49,0,0,1,45.9,22a3.41,3.41,0,0,1,.8-4.78S52.91,12.38,54.65,11.16ZM47.27,5.42c1.72-1.32,3.85-1.16,4.91.13a3.55,3.55,0,0,1-.73,5c-1.89,1.58-6.73,5.26-6.73,5.26a3,3,0,0,1-4.1-.48,3.19,3.19,0,0,1,.26-4.3C42.11,9.9,45.56,6.75,47.27,5.42ZM38.53,2.91c1.77-1.57,4.53-.39,6,1.73L39.33,9.37C37.33,7.23,36.72,4.52,38.53,2.91Zm-19.65,8a4.05,4.05,0,0,1,5.4-.06c.38.4,1.4,1.45,2,2.12-1.16-.07-2.9-.22-2.9-.22-2-.1-3.27.12-4.65,1.78l-.74.89A3.56,3.56,0,0,1,18.88,10.86Zm8.53,46.85-9.93,7.17S7,57.9,3,48.67l7.7-9.84a5.63,5.63,0,0,0,1.06-3.29l.76-7.94a5.45,5.45,0,0,1,1.18-3.38l7.1-8.32a2.2,2.2,0,0,1,1.78-.77l10.61.41a.9.9,0,0,1,.8,1.21c-.73,2-2.92,5.77-9,5.48-2.89,5.46-2.42,4.53-2.42,4.53A8.25,8.25,0,0,0,20.84,26a3.29,3.29,0,0,0-4.23,2.39L14.84,38.88A3.28,3.28,0,0,0,16,42L31.17,55.75Zm29.34,7.91L45.5,56.54a6.8,6.8,0,0,0-3.21-1.41l-9.54-1.47-15-13.74a1,1,0,0,1-.3-.87L19,29.22a1,1,0,0,1,1.52-.74C23.38,30,25.8,32.91,25,38L34.86,44c.25.16.48-.06.71-.47a1.54,1.54,0,0,0-.5-1.94l-7.31-5a11.08,11.08,0,0,0-3.12-8.53l2-3.88s6.26.79,9.58-6.73a2.86,2.86,0,0,0-2.44-4.16c-.8,0-2.39-.15-4.31-.22-.65-.74-1.6-2-1.93-2.41a3.92,3.92,0,0,1,.22-5.58A3.83,3.83,0,0,1,33,5.24c1.07,1.12,3.47,4.06,5,6-.85,2.72-.14,4.26.77,5.36.78.92,2,1.7,4.39,1.81a5.25,5.25,0,0,0,.67,4.77c1.19,1.58,2.81,2.17,5.33,2C47.73,29,50.66,32.48,55,32.36a4.68,4.68,0,0,0,.72,4.13,5.69,5.69,0,0,0,6.93,1.71,20.51,20.51,0,0,0,2.92-1.67l1.16,4.86,8.11,10C67.68,60.26,56.75,65.62,56.75,65.62Z" style="fill:#000"/>
      <path d="M105.84,32h-2l-.57-1.88c-1.06,1.55-2.2,2.28-3.5,2.28A4.43,4.43,0,0,1,95.86,30c-.61-1.14-.78-2.24-.78-4.68V10.89c0-4.32,1.8-6.51,5.38-6.51s5.46,2.36,5.46,7.08c0,.57,0,1.1-.08,2.16h-3.79a17,17,0,0,0,.08-1.87c0-3-.36-3.83-1.71-3.83s-1.55.61-1.55,3V25.28c0,2,0,2.28.25,2.73a1.38,1.38,0,0,0,1.3.85,1.5,1.5,0,0,0,1.39-1,6.25,6.25,0,0,0,.24-2.6V21.36h-1.67V18.15h5.46Z" style="fill:#000"/>
      <path d="M112.81,4.78c3,0,4.44.49,5.54,1.92,1,1.26,1.42,3.09,1.42,5.66,0,3.38-.36,4.6-1.91,6.6l2.65,13h-4.08l-2.2-11.7a7.67,7.67,0,0,1-1.34.17V32H109.1V4.78Zm.61,11.82c1.22,0,1.91-.29,2.28-1,.28-.53.36-1.18.36-3.67,0-2.93-.53-3.62-2.64-3.62h-.53V16.6Z" style="fill:#000"/>
      <path d="M132.56,4.78V8.33h-5.37V16h3.74v3.54h-3.74v8.92h5.7V32H123.4V4.78Z" style="fill:#000"/>
      <path d="M147.43,32h-3.79L139.16,17.7V32h-3.79V4.78h3.26l5,16v-16h3.79Z" style="fill:#000"/>
      <path d="M159.86,4.78V8.33h-5.38V16h3.75v3.54h-3.75V32h-3.79V4.78Z" style="fill:#000"/>
      <path d="M171.18,4.78V8.33h-5.37V16h3.74v3.54h-3.74v8.92h5.7V32H162V4.78Z" style="fill:#000"/>
      <path d="M174,4.78h3.79V28.41h5.38V32H174Z" style="fill:#000"/>
      <path d="M185.44,4.78h3.79V28.41h5.38V32h-9.17Z" style="fill:#000"/>
      <path d="M98.91,59.17c0,1.55.49,2.2,1.59,2.2s1.59-.65,1.59-2.2V37.33h3.79V57.62c0,3.22-.12,3.91-.86,5.1a5.74,5.74,0,0,1-9,0c-.73-1.19-.86-1.88-.86-5.1V37.33h3.79Z" style="fill:#000"/>
      <path d="M121.2,64.51h-3.79l-4.48-14.26V64.51h-3.79V37.33h3.26l5,16v-16h3.79Z" style="fill:#000"/>
      <path d="M128.25,64.51h-3.79V37.33h3.79Z" style="fill:#000"/>
      <path d="M134.27,40.88h-3.54V37.33h11v3.55h-3.71V64.51h-3.79Z" style="fill:#000"/>
      <path d="M153.42,37.33v3.55H148V48.5h3.75V52H148V61h5.71v3.55h-9.5V37.33Z" style="fill:#000"/>
      <path d="M160.27,37.33c2.64,0,3.87.37,5,1.51A6.39,6.39,0,0,1,167,43.61V58.23A6.39,6.39,0,0,1,165.28,63c-1.14,1.14-2.37,1.51-5,1.51h-4V37.33ZM160.51,61c2.08,0,2.69-.61,2.69-2.73V43.61c0-2.08-.65-2.73-2.69-2.73H160V61Z" style="fill:#000"/>
    </g>
  </g>
</svg>